<svg width="19" height="19" viewBox="0 0 19 19" fill="none" xmlns="http://www.w3.org/2000/svg">
<mask id="mask0_1_363" style="mask-type:alpha" maskUnits="userSpaceOnUse" x="0" y="0" width="19" height="19">
<g clip-path="url(#clip0_1_363)">
<g clip-path="url(#clip1_1_363)">
<path d="M18.3508 5.42568L16.257 12.0189C16.1874 12.2451 16.0473 12.443 15.8572 12.5839C15.6671 12.7247 15.4369 12.8011 15.2003 12.8019H7.12065C6.88946 12.8031 6.66323 12.7348 6.47132 12.6059C6.2794 12.4769 6.13064 12.2933 6.04433 12.0788L2.95274 3.8019H1.17299C0.970392 3.79454 0.778546 3.70888 0.63782 3.56295C0.497093 3.41701 0.418457 3.22218 0.418457 3.01945C0.418457 2.81672 0.497093 2.62189 0.63782 2.47595C0.778546 2.33002 0.970392 2.24436 1.17299 2.237H3.50124C3.66416 2.23897 3.82261 2.29054 3.95548 2.38484C4.08835 2.47914 4.18932 2.61169 4.24495 2.76483L7.43364 11.2349H14.8708L16.5338 5.95248H7.31588C7.21074 5.9563 7.1059 5.93889 7.00763 5.90129C6.90937 5.86369 6.81969 5.80667 6.74395 5.73364C6.66821 5.6606 6.60797 5.57305 6.56683 5.47622C6.52568 5.37938 6.50448 5.27524 6.50448 5.17003C6.50448 5.06482 6.52568 4.96068 6.56683 4.86385C6.60797 4.76701 6.66821 4.67946 6.74395 4.60643C6.81969 4.53339 6.90937 4.47637 7.00763 4.43877C7.1059 4.40117 7.21074 4.38376 7.31588 4.38758H17.6071C17.7303 4.38946 17.8513 4.4206 17.9601 4.47843C18.069 4.53626 18.1625 4.61912 18.233 4.72019C18.3091 4.81905 18.3596 4.93515 18.3802 5.0582C18.4007 5.18125 18.3906 5.30746 18.3508 5.42568ZM7.51214 13.839C7.21853 13.8394 6.93415 13.9417 6.70744 14.1282C6.48073 14.3148 6.3257 14.5742 6.26875 14.8622C6.21181 15.1503 6.25647 15.4492 6.39513 15.708C6.53379 15.9668 6.75787 16.1695 7.02922 16.2817C7.30057 16.3938 7.60241 16.4085 7.88333 16.3231C8.16425 16.2377 8.40689 16.0575 8.56992 15.8134C8.73296 15.5692 8.80631 15.276 8.77748 14.9838C8.74866 14.6916 8.61944 14.4185 8.41183 14.2108C8.172 13.9741 7.84909 13.8407 7.51214 13.839ZM14.5361 13.839C14.2425 13.8394 13.9581 13.9417 13.7314 14.1282C13.5047 14.3148 13.3497 14.5742 13.2927 14.8622C13.2358 15.1503 13.2805 15.4492 13.4191 15.708C13.5578 15.9668 13.7819 16.1695 14.0532 16.2817C14.3246 16.3938 14.6264 16.4085 14.9073 16.3231C15.1882 16.2377 15.4309 16.0575 15.5939 15.8134C15.7569 15.5692 15.8303 15.276 15.8015 14.9838C15.7726 14.6916 15.6434 14.4185 15.4358 14.2108C15.196 13.9741 14.8731 13.8407 14.5361 13.839Z" fill="black"/>
</g>
</g>
</mask>
<g mask="url(#mask0_1_363)">
<rect x="0.390015" y="0.310059" width="18" height="18" fill="#184363"/>
</g>
<defs>
<clipPath id="clip0_1_363">
<rect width="18" height="18" fill="white" transform="translate(0.390015 0.310059)"/>
</clipPath>
<clipPath id="clip1_1_363">
<rect width="18" height="14.1461" fill="white" transform="translate(0.390015 2.237)"/>
</clipPath>
</defs>
</svg>
