<svg width="150" height="24" viewBox="0 0 150 24" fill="none" xmlns="http://www.w3.org/2000/svg">
<path d="M13.028 2C14.153 2.003 14.724 2.009 15.217 2.023L15.411 2.03C15.635 2.038 15.856 2.048 16.123 2.06C17.187 2.11 17.913 2.278 18.55 2.525C19.21 2.779 19.766 3.123 20.322 3.678C20.8305 4.1779 21.224 4.78259 21.475 5.45C21.722 6.087 21.89 6.813 21.94 7.878C21.952 8.144 21.962 8.365 21.97 8.59L21.976 8.784C21.991 9.276 21.997 9.847 21.999 10.972L22 11.718V13.028C22.0025 13.7574 21.9948 14.4868 21.977 15.216L21.971 15.41C21.963 15.635 21.953 15.856 21.941 16.122C21.891 17.187 21.721 17.912 21.475 18.55C21.2247 19.2178 20.8312 19.8226 20.322 20.322C19.822 20.8303 19.2173 21.2238 18.55 21.475C17.913 21.722 17.187 21.89 16.123 21.94C15.8857 21.9512 15.6484 21.9612 15.411 21.97L15.217 21.976C14.724 21.99 14.153 21.997 13.028 21.999L12.282 22H10.973C10.2433 22.0025 9.51355 21.9949 8.78403 21.977L8.59003 21.971C8.35264 21.962 8.1153 21.9517 7.87803 21.94C6.81403 21.89 6.08803 21.722 5.45003 21.475C4.7827 21.2244 4.17824 20.8308 3.67903 20.322C3.17007 19.8223 2.77625 19.2176 2.52503 18.55C2.27803 17.913 2.11003 17.187 2.06003 16.122C2.04889 15.8847 2.03889 15.6474 2.03003 15.41L2.02503 15.216C2.0066 14.4868 1.99827 13.7574 2.00003 13.028V10.972C1.99724 10.2426 2.00457 9.5132 2.02203 8.784L2.02903 8.59C2.03703 8.365 2.04703 8.144 2.05903 7.878C2.10903 6.813 2.27703 6.088 2.52403 5.45C2.77514 4.7819 3.16975 4.17702 3.68003 3.678C4.17912 3.16947 4.78317 2.77599 5.45003 2.525C6.08803 2.278 6.81303 2.11 7.87803 2.06C8.14403 2.048 8.36603 2.038 8.59003 2.03L8.78403 2.024C9.51322 2.00623 10.2426 1.99857 10.972 2.001L13.028 2ZM12 7C10.6739 7 9.40218 7.52678 8.46449 8.46447C7.52681 9.40215 7.00003 10.6739 7.00003 12C7.00003 13.3261 7.52681 14.5979 8.46449 15.5355C9.40218 16.4732 10.6739 17 12 17C13.3261 17 14.5979 16.4732 15.5356 15.5355C16.4732 14.5979 17 13.3261 17 12C17 10.6739 16.4732 9.40215 15.5356 8.46447C14.5979 7.52678 13.3261 7 12 7ZM12 9C12.394 8.99993 12.7841 9.07747 13.1481 9.22817C13.5121 9.37887 13.8429 9.5998 14.1215 9.87833C14.4001 10.1569 14.6212 10.4875 14.772 10.8515C14.9228 11.2154 15.0005 11.6055 15.0005 11.9995C15.0006 12.3935 14.9231 12.7836 14.7724 13.1476C14.6217 13.5116 14.4007 13.8423 14.1222 14.121C13.8437 14.3996 13.513 14.6206 13.149 14.7714C12.7851 14.9223 12.395 14.9999 12.001 15C11.2054 15 10.4423 14.6839 9.87971 14.1213C9.3171 13.5587 9.00103 12.7956 9.00103 12C9.00103 11.2044 9.3171 10.4413 9.87971 9.87868C10.4423 9.31607 11.2054 9 12.001 9M17.251 5.5C16.9195 5.5 16.6016 5.6317 16.3671 5.86612C16.1327 6.10054 16.001 6.41848 16.001 6.75C16.001 7.08152 16.1327 7.39946 16.3671 7.63388C16.6016 7.8683 16.9195 8 17.251 8C17.5825 8 17.9005 7.8683 18.1349 7.63388C18.3693 7.39946 18.501 7.08152 18.501 6.75C18.501 6.41848 18.3693 6.10054 18.1349 5.86612C17.9005 5.6317 17.5825 5.5 17.251 5.5Z" fill="#F8F8F8"/>
<path d="M55.795 10.533L62.68 2H59.607L54.352 8.517L49.69 2H43L50.806 12.91L43.47 22H46.544L52.249 14.93L57.31 22H64L55.795 10.533ZM53.415 13.483L51.97 11.464L46.36 3.627H48.67L53.198 9.944L54.641 11.964L60.659 20.373H58.349L53.415 13.483Z" fill="white"/>
<path d="M106 12C106 6.48 101.52 2 96 2C90.48 2 86 6.48 86 12C86 16.84 89.44 20.87 94 21.8V15H92V12H94V9.5C94 7.57 95.57 6 97.5 6H100V9H98C97.45 9 97 9.45 97 10V12H100V15H97V21.95C102.05 21.45 106 17.19 106 12Z" fill="white"/>
<g clip-path="url(#clip0_1_229)">
<path fill-rule="evenodd" clip-rule="evenodd" d="M138 4C138.855 4 139.732 4.022 140.582 4.058L141.586 4.106L142.547 4.163L143.447 4.224L144.269 4.288C145.161 4.35628 146 4.73695 146.64 5.36304C147.279 5.98913 147.676 6.82054 147.763 7.711L147.803 8.136L147.878 9.046C147.948 9.989 148 11.017 148 12C148 12.983 147.948 14.011 147.878 14.954L147.803 15.864C147.79 16.01 147.777 16.151 147.763 16.289C147.676 17.1796 147.278 18.0112 146.639 18.6373C146 19.2634 145.16 19.6439 144.268 19.712L143.448 19.775L142.548 19.837L141.586 19.894L140.582 19.942C139.722 19.9794 138.861 19.9987 138 20C137.139 19.9987 136.278 19.9794 135.418 19.942L134.414 19.894L133.453 19.837L132.553 19.775L131.731 19.712C130.839 19.6437 130 19.2631 129.36 18.637C128.721 18.0109 128.324 17.1795 128.237 16.289L128.197 15.864L128.122 14.954C128.046 13.9711 128.005 12.9858 128 12C128 11.017 128.052 9.989 128.122 9.046L128.197 8.136C128.21 7.99 128.223 7.849 128.237 7.711C128.324 6.8207 128.721 5.98942 129.36 5.36334C129.999 4.73727 130.838 4.3565 131.73 4.288L132.551 4.224L133.451 4.163L134.413 4.106L135.417 4.058C136.278 4.02063 137.139 4.0013 138 4ZM136 9.575V14.425C136 14.887 136.5 15.175 136.9 14.945L141.1 12.52C141.191 12.4674 141.267 12.3916 141.32 12.3003C141.373 12.209 141.401 12.1055 141.401 12C141.401 11.8945 141.373 11.791 141.32 11.6997C141.267 11.6084 141.191 11.5326 141.1 11.48L136.9 9.056C136.809 9.00332 136.705 8.9756 136.6 8.97562C136.495 8.97563 136.391 9.00339 136.3 9.0561C136.209 9.1088 136.133 9.1846 136.08 9.27587C136.028 9.36713 136 9.47065 136 9.576V9.575Z" fill="white"/>
</g>
<defs>
<clipPath id="clip0_1_229">
<rect width="24" height="24" fill="white" transform="translate(126)"/>
</clipPath>
</defs>
</svg>
