<svg width="8" height="8" viewBox="0 0 8 8" fill="none" xmlns="http://www.w3.org/2000/svg">
<path d="M6.22234 3.68784L2.66224 0.127804C2.5799 0.045398 2.46999 0 2.35278 0C2.23558 0 2.12566 0.045398 2.04332 0.127804L1.78115 0.389915C1.61055 0.560711 1.61055 0.838302 1.78115 1.00884L4.77065 3.99834L1.77783 6.99116C1.69549 7.07357 1.65002 7.18342 1.65002 7.30056C1.65002 7.41783 1.69549 7.52768 1.77783 7.61015L2.04 7.8722C2.12241 7.9546 2.23226 8 2.34947 8C2.46667 8 2.57659 7.9546 2.65893 7.8722L6.22234 4.30891C6.30488 4.22624 6.35021 4.11587 6.34995 3.99854C6.35021 3.88075 6.30488 3.77044 6.22234 3.68784Z" fill="white"/>
</svg>
